<svg width="32" height="32" viewBox="0 0 32 32" fill="none" xmlns="http://www.w3.org/2000/svg">
<g clip-path="url(#clip0_4_6)">
<path d="M20 10H7.8149L11.4023 6.4141L10 5L4 11L10 17L11.4023 15.5854L7.8179 12H20C21.5913 12 23.1174 12.6321 24.2426 13.7574C25.3679 14.8826 26 16.4087 26 18C26 19.5913 25.3679 21.1174 24.2426 22.2426C23.1174 23.3679 21.5913 24 20 24H12V26H20C22.1217 26 24.1566 25.1571 25.6569 23.6569C27.1571 22.1566 28 20.1217 28 18C28 15.8783 27.1571 13.8434 25.6569 12.3431C24.1566 10.8429 22.1217 10 20 10Z" fill="black" fill-opacity="0.4"/>
</g>
<defs>
<clipPath id="clip0_4_6">
<rect width="32" height="32" fill="white"/>
</clipPath>
</defs>
</svg>
